<?xml version="1.0" encoding="UTF-8" standalone="no" ?>
<svg xmlns="http://www.w3.org/2000/svg" xmlns:xlink="http://www.w3.org/1999/xlink" version="1.1" width="340" height="320" viewBox="0 0 500 500" xml:space="preserve">



<g transform="matrix(0.02 0 0 -0.03 407.29 249.13)"  >
<path style="stroke: none; stroke-width: 1; stroke-dasharray: none; stroke-linecap: butt; stroke-dashoffset: 0; stroke-linejoin: miter; stroke-miterlimit: 4; fill: #CB1B1A; fill-rule: nonzero; opacity: 1;" vector-effect="non-scaling-stroke"  transform=" translate(-10789.11, -3330)" d="M 8870 5431 C 8850 5420 8824 5393 8810 5368 L 8785 5325 L 8780 3340 C 8775 1371 8775 1355 8795 1311 C 8831 1231 8836 1230 9207 1230 L 9530 1230 L 9559 1287 C 9657 1481 9852 1671 10058 1774 C 10139 1815 10275 1857 10384 1876 C 10531 1901 10790 1892 10922 1857 C 11223 1778 11463 1581 11596 1304 L 11641 1210 L 12062 1210 L 12483 1210 L 12546 1241 C 12634 1284 12732 1376 12767 1448 L 12795 1505 L 12798 2233 L 12801 2961 L 12766 3065 C 12721 3199 12678 3283 12567 3455 C 12376 3751 11548 5096 11506 5178 C 11430 5328 11274 5416 11040 5440 C 10976 5446 10561 5450 9921 5450 C 8951 5449 8903 5448 8870 5431 z M 10861 5140 C 11032 5123 11140 5082 11170 5023 C 11178 5008 11232 4916 11289 4820 C 11570 4345 11765 3997 11826 3859 C 11852 3801 11865 3756 11868 3713 C 11872 3655 11870 3649 11843 3621 C 11827 3605 11796 3587 11774 3581 C 11719 3566 9536 3566 9475 3581 C 9423 3594 9356 3648 9331 3699 C 9291 3778 9288 3821 9292 4430 C 9295 5007 9295 5016 9317 5062 C 9330 5091 9352 5117 9372 5130 C 9404 5149 9420 5150 10081 5150 C 10474 5150 10801 5146 10861 5140 z M 12466 2029 C 12515 1984 12520 1957 12520 1735 C 12520 1499 12513 1469 12456 1445 C 12385 1415 12299 1432 12250 1484 C 12226 1510 12225 1518 12222 1657 C 12215 1969 12255 2066 12388 2057 C 12426 2054 12447 2047 12466 2029 z" stroke-linecap="round" />
</g>
<g transform="matrix(0.02 0 0 -0.03 132.59 295.27)"  >
<path style="stroke: none; stroke-width: 1; stroke-dasharray: none; stroke-linecap: butt; stroke-dashoffset: 0; stroke-linejoin: miter; stroke-miterlimit: 4; fill: #CB1B1A; fill-rule: nonzero; opacity: 1;" vector-effect="non-scaling-stroke"  transform=" translate(-4441.56, -1645)" d="M 860 2141 C 714 2101 585 2008 536 1907 C 444 1717 506 1408 665 1261 C 701 1228 796 1170 814 1170 C 817 1170 829 1189 841 1213 C 952 1432 1200 1673 1425 1780 C 1740 1931 2128 1936 2423 1795 C 2542 1738 2620 1682 2731 1571 C 2846 1456 2934 1331 2991 1205 L 3025 1130 L 5708 1130 L 8390 1130 L 8390 1645 L 8390 2160 L 4658 2159 C 1119 2159 922 2158 860 2141 z" stroke-linecap="round" />
</g>
<g transform="matrix(0.02 0 0 -0.03 82.52 315.34)"  >
<path style="stroke: none; stroke-width: 1; stroke-dasharray: none; stroke-linecap: butt; stroke-dashoffset: 0; stroke-linejoin: miter; stroke-miterlimit: 4; fill: #CB1B1A; fill-rule: nonzero; opacity: 1;" vector-effect="non-scaling-stroke"  transform=" translate(-1881.42, -853.95)" d="M 1726 1695 C 1553 1662 1395 1575 1268 1442 C 819 972 1034 206 1663 30 C 1760 2 1908 -6 2007 10 C 2351 65 2622 309 2711 645 C 2738 749 2741 942 2717 1043 C 2640 1357 2406 1599 2098 1681 C 1998 1708 1828 1714 1726 1695 z M 2088 1447 C 2411 1333 2585 979 2476 657 C 2388 397 2157 230 1885 230 C 1777 230 1700 248 1605 295 C 1443 374 1315 532 1275 701 C 1256 785 1256 927 1276 1009 C 1322 1196 1479 1373 1659 1441 C 1746 1473 1786 1479 1905 1476 C 1993 1474 2030 1468 2088 1447 z" stroke-linecap="round" />
</g>
<g transform="matrix(0.02 0 0 -0.03 404.04 319.88)"  >
<path style="stroke: none; stroke-width: 1; stroke-dasharray: none; stroke-linecap: butt; stroke-dashoffset: 0; stroke-linejoin: miter; stroke-miterlimit: 4; fill: #CB1B1A; fill-rule: nonzero; opacity: 1;" vector-effect="non-scaling-stroke"  transform=" translate(-10548.1, -856.98)" d="M 10380 1690 C 10274 1667 10223 1649 10141 1604 C 10009 1531 9917 1445 9833 1317 C 9741 1177 9698 1029 9698 855 C 9698 681 9741 532 9831 394 C 9950 213 10104 98 10317 33 C 10394 10 10423 7 10545 6 C 10661 6 10698 9 10763 28 C 11019 101 11204 254 11315 484 C 11374 606 11390 673 11397 816 C 11406 1011 11365 1164 11259 1325 C 11071 1613 10713 1762 10380 1690 z M 10752 1447 C 10847 1413 10923 1365 10991 1297 C 11063 1225 11111 1148 11146 1045 C 11169 977 11173 948 11173 855 C 11173 762 11169 733 11146 665 C 11088 494 10979 369 10825 295 C 10718 244 10659 230 10543 230 C 10265 230 10026 411 9944 686 C 9919 767 9919 943 9944 1025 C 10007 1237 10176 1402 10390 1462 C 10485 1489 10660 1482 10752 1447 z" stroke-linecap="round" />
</g>
<g transform="matrix(1.86 0 0 0.79 275.87 295.26)" id="e79596f7-fb4d-4ff3-8173-f672aa7fd3e5"  >
<rect style="stroke: rgb(0,0,0); stroke-width: 0; stroke-dasharray: none; stroke-linecap: butt; stroke-dashoffset: 0; stroke-linejoin: miter; stroke-miterlimit: 4; fill:#CB1B1A; fill-rule: nonzero; opacity: 1;" vector-effect="non-scaling-stroke"  x="-37.4585" y="-19.4165" rx="0" ry="0" width="74.917" height="38.833" />
</g>
</svg>