<svg width="32" height="32" viewBox="0 0 34 32" fill="none" xmlns="http://www.w3.org/2000/svg">
<g id="004-vimeo-social-logo">
<g id="logo-instagram">
<path id="Combined Shape" fill-rule="evenodd" clip-rule="evenodd" d="M10.3434 0.096C12.0594 0.0186667 12.6077 0 16.9769 0C21.346 0 21.8944 0.0186667 23.6104 0.096C26.2246 0.214667 28.5211 0.852 30.3645 2.68533C32.2079 4.51867 32.8487 6.80267 32.968 9.40267C33.0458 11.1093 33.0646 11.6547 33.0646 16C33.0646 20.3453 33.0458 20.8907 32.968 22.5973C32.8487 25.1973 32.2079 27.4813 30.3645 29.3147C28.5211 31.148 26.2246 31.7853 23.6104 31.904C21.8944 31.9813 21.346 32 16.9769 32C12.6077 32 12.0594 31.9813 10.3434 31.904C7.72914 31.7853 5.43262 31.148 3.58924 29.3147C1.74586 27.4813 1.10503 25.1973 0.985717 22.5973C0.90796 20.8907 0.889191 20.3453 0.889191 16C0.889191 11.6547 0.90796 11.1093 0.985717 9.40267C1.10503 6.80267 1.74586 4.51867 3.58924 2.68533C5.43262 0.852 7.72914 0.214667 10.3434 0.096ZM23.4762 2.97623C21.7803 2.8989 21.2709 2.8829 16.9755 2.8829C12.68 2.8829 12.1706 2.8989 10.4747 2.97623C8.64337 3.0589 6.94478 3.42424 5.63766 4.72424C4.33053 6.02424 3.9632 7.71357 3.88008 9.5349C3.80232 11.2216 3.78623 11.7282 3.78623 16.0002C3.78623 20.2722 3.80232 20.7789 3.88008 22.4656C3.9632 24.2869 4.33053 25.9762 5.63766 27.2762C6.94478 28.5762 8.64337 28.9416 10.4747 29.0242C12.1706 29.1016 12.68 29.1176 16.9755 29.1176C21.2709 29.1176 21.7803 29.1016 23.4762 29.0242C25.3075 28.9416 27.0061 28.5762 28.3133 27.2762C29.6204 25.9762 29.9877 24.2869 30.0708 22.4656C30.1486 20.7789 30.1647 20.2722 30.1647 16.0002C30.1647 11.7282 30.1486 11.2216 30.0708 9.5349C29.9877 7.71357 29.6204 6.02424 28.3133 4.72424C27.0061 3.42424 25.3075 3.0589 23.4762 2.97623ZM8.71309 15.999C8.71309 11.4617 12.4119 7.78305 16.9741 7.78305C21.5363 7.78305 25.2351 11.4617 25.2351 15.999C25.2351 20.5364 21.5363 24.215 16.9741 24.215C12.4119 24.215 8.71309 20.5364 8.71309 15.999ZM11.6101 15.9993C11.6101 18.9446 14.0112 21.3326 16.9727 21.3326C19.9342 21.3326 22.3353 18.9446 22.3353 15.9993C22.3353 13.054 19.9342 10.666 16.9727 10.666C14.0112 10.666 11.6101 13.054 11.6101 15.9993ZM27.4929 7.45957C27.4929 8.51996 26.6286 9.37957 25.5624 9.37957C24.4962 9.37957 23.6319 8.51996 23.6319 7.45957C23.6319 6.39918 24.4962 5.53957 25.5624 5.53957C26.6286 5.53957 27.4929 6.39918 27.4929 7.45957Z" fill="#CB1B1A"/>
</g>
</g>
</svg>
